name Walk4.mot
datacolumns 19
datarows 15
range 1.25000000 1.26400000
endheader

                time	   L_ground_force_vx	   L_ground_force_vy	   L_ground_force_vz	   L_ground_force_px	   L_ground_force_py	   L_ground_force_pz	   R_ground_force_vx	   R_ground_force_vy	   R_ground_force_vz	   R_ground_force_px	   R_ground_force_py	   R_ground_force_pz	   L_ground_torque_x	   L_ground_torque_y	   L_ground_torque_z	   R_ground_torque_x	   R_ground_torque_y	   R_ground_torque_z	
          1.25000000	          0.00000000	         -0.00000005	          0.00000001	         -0.00000000	          0.00000000	         -0.00000000	         -3.74590985	         94.23141424	          8.98367432	         -0.00215814	          0.00000000	          0.00156709	          0.00000000	          0.00000000	          0.00000000	          0.00000000	         -0.12574369	          0.00000000	
          1.25100000	          0.00000000	         -0.00000005	          0.00000001	         -0.00000000	          0.00000000	         -0.00000000	         -4.77235245	        102.76360417	          9.44387244	         -0.01272334	          0.00000000	          0.01654414	          0.00000000	          0.00000000	          0.00000000	          0.00000000	         -0.13882594	          0.00000000	
          1.25200000	          0.00000000	         -0.00000006	          0.00000001	         -0.00000000	          0.00000000	         -0.00000000	         -5.84000456	        111.54580185	          9.91312984	         -0.02324919	          0.00000000	          0.03148523	          0.00000000	          0.00000000	          0.00000000	          0.00000000	         -0.15194931	          0.00000000	
          1.25300000	          0.00000000	         -0.00000006	          0.00000001	         -0.00000000	          0.00000000	         -0.00000000	         -6.94896642	        120.56733792	         10.39024792	         -0.03370680	          0.00000000	          0.04635086	          0.00000000	          0.00000000	          0.00000000	          0.00000000	         -0.16507500	          0.00000000	
          1.25400000	          0.00000000	         -0.00000006	          0.00000001	         -0.00000000	          0.00000000	         -0.00000000	         -8.09924679	        129.81580039	         10.87387335	         -0.04406690	          0.00000000	          0.06110107	          0.00000000	          0.00000000	          0.00000000	          0.00000000	         -0.17816185	          0.00000000	
          1.25500000	          0.00000000	         -0.00000007	          0.00000001	         -0.00000000	          0.00000000	         -0.00000000	         -9.29075100	        139.27690914	         11.36248953	         -0.05429995	          0.00000000	          0.07569550	          0.00000000	          0.00000000	          0.00000000	          0.00000000	         -0.19116623	          0.00000000	
          1.25600000	          0.00000000	         -0.00000007	          0.00000001	         -0.00000000	          0.00000000	         -0.00000000	        -10.52328761	        148.93444718	         11.85440471	         -0.06437688	          0.00000000	          0.09009451	          0.00000000	          0.00000000	          0.00000000	          0.00000000	         -0.20404238	          0.00000000	
          1.25700000	          0.00000000	         -0.00000007	          0.00000001	         -0.00000000	          0.00000000	         -0.00000000	        -11.79659883	        158.77028339	         12.34773685	         -0.07427045	          0.00000000	          0.10426099	          0.00000000	          0.00000000	          0.00000000	          0.00000000	         -0.21674304	          0.00000000	
          1.25800000	          0.00000001	         -0.00000007	          0.00000001	         -0.00000000	          0.00000000	         -0.00000000	        -13.11040228	        168.76448129	         12.84039960	         -0.08395602	          0.00000000	          0.11816151	          0.00000000	          0.00000000	          0.00000000	          0.00000000	         -0.22922001	          0.00000000	
          1.25900000	          0.00000001	         -0.00000008	          0.00000001	         -0.00000000	          0.00000000	         -0.00000000	        -14.46443363	        178.89549196	         13.33009233	         -0.09341167	          0.00000000	          0.13176645	          0.00000000	          0.00000000	          0.00000000	          0.00000000	         -0.24142430	          0.00000000	
          1.26000000	          0.00000001	         -0.00000008	          0.00000001	         -0.00000000	          0.00000000	         -0.00000000	        -15.85848952	        189.14045010	         13.81429475	         -0.10261812	          0.00000000	          0.14504984	          0.00000000	          0.00000000	          0.00000000	          0.00000000	         -0.25330610	          0.00000000	
          1.26100000	          0.00000001	         -0.00000008	          0.00000001	         -0.00000000	          0.00000000	         -0.00000000	        -17.29246693	        199.47557991	         14.29026715	         -0.11155854	          0.00000000	          0.15798913	          0.00000000	          0.00000000	          0.00000000	          0.00000000	         -0.26481463	          0.00000000	
          1.26200000	          0.00000001	         -0.00000008	          0.00000001	         -0.00000000	          0.00000000	         -0.00000000	        -18.76639114	        209.87669273	         14.75505814	         -0.12021850	          0.00000000	          0.17056503	          0.00000000	          0.00000000	          0.00000000	          0.00000000	         -0.27589819	          0.00000000	
          1.26300000	          0.00000001	         -0.00000009	          0.00000001	         -0.00000000	          0.00000000	         -0.00000000	        -20.28042539	        220.31973744	         15.20552201	         -0.12858575	          0.00000000	          0.18276127	          0.00000000	          0.00000000	          0.00000000	          0.00000000	         -0.28650428	          0.00000000	
          1.26400000	          0.00000001	         -0.00000009	          0.00000001	         -0.00000000	          0.00000000	         -0.00000000	        -21.83485839	        230.78135087	         15.63834682	         -0.13665016	          0.00000000	          0.19456446	          0.00000000	          0.00000000	          0.00000000	          0.00000000	         -0.29658000	          0.00000000	
